# File created by Blade
# Date/Time:  Thu Jan 22 16:36:26 2015
# Frame Rate: 120.000 fps
#------------------------------------------------------
:FULLY-SPECIFIED
:DEGREES
2655
root -0.008297 5.596276 -8.735387 -30.787535 -8.064724 34.706798
RightUpLeg -97.524263 -18.089010 33.107863
RightLeg 142.098430 -0.000000 -0.000000
RightFoot 18.726272 -14.522751 135.562593
RightToeBase -399.126937 -0.000000 0.000000
LeftUpLeg -12.356966 -10.458079 27.976304
LeftLeg 142.539021 -0.000000 -0.000000
LeftFoot 19.074067 20.337857 -23.354019
LeftToeBase 6.899385 -0.000000 -0.000000
Spine 51.494747 8.591260 -16.724386
RightShoulder 10.064787 -17.199745 -30.924905
RightArm 8.938073 -20.323061 69.834907
RightForeArm 26.636598 -0.000000 32.551239
RightHand 25.152627 -0.000000 -57.918088
RightHandThumb1 -24.326973 -0.000000 -32.862282
LeftShoulder -23.415768 27.849472 -15.146953
LeftArm 38.353160 -12.925347 -72.710055
LeftForeArm 30.949144 0.000000 19.825758
LeftHand -8.835039 -0.000000 -13.626602
LeftHandThumb1 -26.253704 0.000000 33.147579
Head -20.432615 11.337689 -42.060692
2656
root 0.000744 5.582700 -8.767320 -31.007669 -7.717844 34.455641
RightUpLeg -97.537650 -18.481468 33.225363
RightLeg 142.031956 -0.000000 -0.000000
RightFoot 18.592108 -14.369761 135.689997
RightToeBase -399.506805 -0.000000 0.000000
LeftUpLeg -12.475612 -10.630475 27.983048
LeftLeg 142.544730 -0.000000 -0.000000
LeftFoot 18.886472 20.208439 -23.777626
LeftToeBase 6.793978 -0.000000 -0.000000
Spine 51.704938 8.544664 -16.747202
RightShoulder 10.094909 -17.321412 -30.897862
RightArm 8.972023 -20.238479 69.765088
RightForeArm 26.598437 -0.000000 32.697438
RightHand 24.961325 -0.000000 -56.903452
RightHandThumb1 -24.326973 -0.000000 -32.862282
LeftShoulder -23.448874 27.912167 -15.111322
LeftArm 38.491697 -12.803947 -72.643610
LeftForeArm 30.741072 -0.000000 19.877844
LeftHand -8.806231 -0.000000 -13.607167
LeftHandThumb1 -26.253704 0.000000 33.147579
Head -19.810935 11.413627 -42.025509
2657
root 0.008171 5.566087 -8.798200 -31.226768 -7.371650 34.177190
RightUpLeg -97.526342 -18.917822 33.233415
RightLeg 141.992047 -0.000000 -0.000000
RightFoot 18.654253 -14.501310 135.786599
RightToeBase -399.544618 -0.000000 0.000000
LeftUpLeg -12.604302 -10.809389 28.055660
LeftLeg 142.555326 -0.000000 -0.000000
LeftFoot 18.659262 20.033973 -24.349412
LeftToeBase 6.691240 -0.000000 -0.000000
Spine 51.907421 8.492612 -16.729086
RightShoulder 10.106201 -17.424914 -30.893518
RightArm 8.945943 -20.155762 69.738123
RightForeArm 26.434533 -0.000000 32.908236
RightHand 24.688759 -0.000000 -55.877525
RightHandThumb1 -24.326973 -0.000000 -32.862282
LeftShoulder -23.485287 27.967066 -15.075548
LeftArm 38.636483 -12.619647 -72.533165
LeftForeArm 30.516316 -0.000000 19.901429
LeftHand -8.765041 -0.000000 -13.552386
LeftHandThumb1 -26.253704 0.000000 33.147579
Head -19.132657 11.518583 -41.979811
2658
root 0.008512 5.550147 -8.828834 -31.461835 -6.965759 33.804008
RightUpLeg -97.424269 -19.522271 33.056849
RightLeg 141.884361 -0.000000 -0.000000
RightFoot 18.992714 -15.084950 136.039121
RightToeBase -399.525697 -0.000000 0.000000
LeftUpLeg -12.782125 -11.083083 28.176931
LeftLeg 142.570768 -0.000000 -0.000000
LeftFoot 18.367353 19.846231 -24.971736
LeftToeBase 6.768546 -0.000000 -0.000000
Spine 52.167627 8.336460 -16.661349
RightShoulder 10.093411 -17.418025 -30.892920
RightArm 8.791526 -20.102937 69.766131
RightForeArm 26.366118 -0.000000 33.256774
RightHand 24.337656 -0.000000 -54.839465
RightHandThumb1 -24.326973 -0.000000 -32.862282
LeftShoulder -23.552159 28.023997 -15.093816
LeftArm 38.867206 -12.561682 -72.522533
LeftForeArm 30.442278 0.000000 19.885390
LeftHand -8.597015 -0.000000 -13.665639
LeftHandThumb1 -26.253704 0.000000 33.147579
Head -18.499683 11.599524 -41.983800
2659
root 0.012249 5.533751 -8.860568 -31.710751 -6.591269 33.535310
RightUpLeg -97.375812 -20.003650 33.012533
RightLeg 141.830636 -0.000000 -0.000000
RightFoot 19.097236 -15.286788 136.180178
RightToeBase -399.622951 -0.000000 0.000000
LeftUpLeg -12.921129 -11.262070 28.197039
LeftLeg 142.580125 -0.000000 -0.000000
LeftFoot 18.134971 19.632040 -25.548256
LeftToeBase 6.431753 -0.000000 -0.000000
Spine 52.394900 8.313133 -16.654395
RightShoulder 10.013047 -17.516142 -30.902380
RightArm 8.734964 -20.040658 69.791778
RightForeArm 26.164141 0.000000 33.605578
RightHand 24.123702 -0.000000 -53.804609
RightHandThumb1 -24.326973 -0.000000 -32.862282
LeftShoulder -23.555277 28.062202 -15.000630
LeftArm 38.998941 -12.331275 -72.387882
LeftForeArm 30.207039 -0.000000 19.915772
LeftHand -8.568658 0.000000 -13.735282
LeftHandThumb1 -26.253704 0.000000 33.147579
Head -17.810557 11.701647 -41.912722
2660
root 0.016274 5.517896 -8.894799 -31.973392 -6.244333 33.288682
RightUpLeg -97.306391 -20.453628 32.992174
RightLeg 141.739678 -0.000000 -0.000000
RightFoot 19.084444 -15.384848 136.449906
RightToeBase -399.857561 -0.000000 0.000000
LeftUpLeg -13.046730 -11.373217 28.204602
LeftLeg 142.572672 -0.000000 -0.000000
LeftFoot 17.863481 19.963506 -25.929344
LeftToeBase 4.745259 -0.000000 -0.000000
Spine 52.621024 8.325333 -16.658290
RightShoulder 9.949653 -17.624383 -30.923596
RightArm 8.645454 -19.916014 69.857303
RightForeArm 25.851907 0.000000 34.043138
RightHand 23.791080 -0.000000 -53.092896
RightHandThumb1 -24.326973 -0.000000 -32.862282
LeftShoulder -23.545083 28.107845 -14.911747
LeftArm 39.133624 -12.056826 -72.199031
LeftForeArm 29.882483 -0.000000 19.943639
LeftHand -8.491815 0.000000 -13.679346
LeftHandThumb1 -26.253704 0.000000 33.147579
Head -17.112343 11.775369 -41.819447
2661
root 0.018635 5.502316 -8.933917 -32.212162 -5.890258 33.025690
RightUpLeg -97.339912 -20.854289 33.245122
RightLeg 141.663267 -0.000000 -0.000000
RightFoot 18.798827 -15.031409 136.539976
RightToeBase -400.262877 -0.000000 0.000000
LeftUpLeg -13.193768 -11.449152 28.228952
LeftLeg 142.594703 -0.000000 -0.000000
LeftFoot 17.373963 21.124975 -26.129642
LeftToeBase 5.438207 -0.000000 -0.000000
Spine 52.834296 8.329079 -16.650046
RightShoulder 9.861133 -17.668331 -30.936899
RightArm 8.483095 -19.915701 69.910713
RightForeArm 25.814637 -0.000000 34.580548
RightHand 23.463644 -0.000000 -52.197299
RightHandThumb1 -24.326973 -0.000000 -32.862282
LeftShoulder -23.491886 28.132160 -14.818432
LeftArm 39.259256 -11.812382 -72.012266
LeftForeArm 29.939989 0.000000 20.025126
LeftHand -8.457754 -0.000000 -13.500733
LeftHandThumb1 -26.253704 0.000000 33.147579
Head -16.436503 11.862688 -41.721448
2662
root 0.017890 5.484491 -8.967902 -32.489716 -5.527470 32.761572
RightUpLeg -97.261391 -21.339717 33.221436
RightLeg 141.584424 -0.000000 -0.000000
RightFoot 18.839527 -15.173322 136.677242
RightToeBase -400.357757 -0.000000 0.000000
LeftUpLeg -13.325281 -11.496611 28.221137
LeftLeg 142.598168 -0.000000 -0.000000
LeftFoot 16.991519 22.373131 -25.211084
LeftToeBase 6.538744 -0.000000 -0.000000
Spine 53.069841 8.332970 -16.667942
RightShoulder 9.789465 -17.814476 -30.958879
RightArm 8.390507 -19.949153 69.902486
RightForeArm 25.792232 -0.000000 35.244546
RightHand 23.067766 -0.000000 -51.606659
RightHandThumb1 -24.326973 -0.000000 -32.862282
LeftShoulder -23.515810 28.201409 -14.729434
LeftArm 39.440236 -11.555796 -71.878345
LeftForeArm 30.341354 0.000000 20.218771
LeftHand -8.548167 -0.000000 -13.257364
LeftHandThumb1 -26.253704 0.000000 33.147579
Head -15.770052 11.915865 -41.589288
2663
root 0.014721 5.468615 -9.001442 -32.778800 -5.094750 32.436372
RightUpLeg -97.158493 -21.945745 33.052900
RightLeg 141.488713 -0.000000 -0.000000
RightFoot 19.141534 -15.736379 137.261166
RightToeBase -400.906988 -0.000000 0.000000
LeftUpLeg -13.504482 -11.700488 28.259834
LeftLeg 142.654705 -0.000000 -0.000000
LeftFoot 16.678419 23.008266 -23.812582
LeftToeBase 7.671535 -0.000000 -0.000000
Spine 53.355126 8.257110 -16.643780
RightShoulder 9.723747 -17.864215 -31.008216
RightArm 8.165165 -20.025222 69.997327
RightForeArm 25.694253 -0.000000 35.920306
RightHand 22.830497 -0.000000 -51.041349
RightHandThumb1 -24.326973 -0.000000 -32.862282
LeftShoulder -23.522920 28.349698 -14.662520
LeftArm 39.681489 -11.325796 -71.750363
LeftForeArm 30.700529 -0.000000 20.457850
LeftHand -8.708155 -0.000000 -12.816570
LeftHandThumb1 -26.253704 0.000000 33.147579
Head -15.110943 12.001898 -41.482207
2664
root 0.014628 5.450665 -9.036594 -33.071036 -4.721269 32.204968
RightUpLeg -97.093539 -22.421832 33.016157
RightLeg 141.417711 -0.000000 -0.000000
RightFoot 19.169213 -15.863154 137.350293
RightToeBase -401.052863 -0.000000 0.000000
LeftUpLeg -13.629302 -11.968297 28.282142
LeftLeg 142.726163 -0.000000 -0.000000
LeftFoot 16.049352 23.280806 -23.283996
LeftToeBase 8.643027 -0.000000 -0.000000
Spine 53.597318 8.260891 -16.722136
RightShoulder 9.702769 -17.880656 -31.049669
RightArm 7.882627 -20.198623 70.076075
RightForeArm 25.748353 -0.000000 36.740730
RightHand 22.584002 -0.000000 -50.559886
RightHandThumb1 -24.326973 -0.000000 -32.862282
LeftShoulder -23.610707 28.484776 -14.542259
LeftArm 39.881481 -11.027183 -71.631224
LeftForeArm 30.901654 0.000000 20.794187
LeftHand -9.089100 -0.000000 -12.312322
LeftHandThumb1 -26.253704 0.000000 33.147579
Head -14.508034 12.086977 -41.364157
2665
root 0.016222 5.434362 -9.075305 -33.356243 -4.335893 31.970132
RightUpLeg -97.023761 -22.901698 32.976337
RightLeg 141.315599 -0.000000 -0.000000
RightFoot 19.093781 -15.939489 137.566887
RightToeBase -401.138061 -0.000000 0.000000
LeftUpLeg -13.794196 -12.309826 28.336930
LeftLeg 142.819921 -0.000000 -0.000000
LeftFoot 15.710920 23.449766 -22.485492
LeftToeBase 8.892842 -0.000000 -0.000000
Spine 53.830286 8.268437 -16.767543
RightShoulder 9.680348 -18.080663 -31.099125
RightArm 7.740284 -20.436821 70.053146
RightForeArm 25.776141 -0.000000 37.667835
RightHand 22.251725 -0.000000 -50.390808
RightHandThumb1 -24.326973 -0.000000 -32.862282
LeftShoulder -23.605620 28.668944 -14.348169
LeftArm 40.040457 -10.775774 -71.588500
LeftForeArm 31.343759 -0.000000 21.134930
LeftHand -9.284264 -0.000000 -11.696621
LeftHandThumb1 -26.253704 0.000000 33.147579
Head -13.823468 12.139543 -41.242344
2666
root 0.018144 5.419881 -9.107945 -33.673964 -3.963681 31.717672
RightUpLeg -96.926299 -23.417387 32.933387
RightLeg 141.251456 -0.000000 -0.000000
RightFoot 19.241857 -16.104999 137.603164
RightToeBase -401.442589 -0.000000 0.000000
LeftUpLeg -13.965654 -12.773062 28.439038
LeftLeg 142.912338 -0.000000 -0.000000
LeftFoot 15.463686 23.517626 -22.099565
LeftToeBase 9.711874 -0.000000 -0.000000
Spine 54.090990 8.258867 -16.771259
RightShoulder 9.672086 -18.244442 -31.166239
RightArm 7.511686 -20.717623 70.051385
RightForeArm 25.791728 -0.000000 38.671571
RightHand 21.928078 -0.000000 -50.194204
RightHandThumb1 -24.326973 -0.000000 -32.862282
LeftShoulder -23.659181 28.875028 -14.184295
LeftArm 40.224506 -10.593242 -71.607541
LeftForeArm 31.537221 -0.000000 21.506593
LeftHand -9.512891 -0.000000 -11.281807
LeftHandThumb1 -26.253704 0.000000 33.147579
Head -13.167838 12.251233 -41.217111
